<svg t="1665743335678" class="icon" viewBox="0 0 1024 1024" version="1.1" xmlns="http://www.w3.org/2000/svg" p-id="2075" width="200" height="200"><path d="M544 629.333333c-23.466667 0-42.666667 19.2-42.666667 42.666667s19.2 42.666667 42.666667 42.666667 42.666667-19.2 42.666667-42.666667-19.2-42.666667-42.666667-42.666667zM544 608c-23.466667 0-42.666667-19.2-42.666667-42.666667v-170.666666c0-23.466667 19.2-42.666667 42.666667-42.666667s42.666667 19.2 42.666667 42.666667v170.666666c0 23.466667-19.2 42.666667-42.666667 42.666667z" p-id="2076" fill="#d81e06"></path><path d="M829.866667 842.666667H256c-34.133333 0-64-19.2-83.2-49.066667-19.2-32-17.066667-72.533333 0-104.533333L460.8 209.066667c17.066667-29.866667 49.066667-46.933333 81.066667-46.933334 34.133333 0 64 17.066667 81.066666 46.933334l285.866667 482.133333c19.2 32 19.2 72.533333 0 104.533333-14.933333 29.866667-44.8 46.933333-78.933333 46.933334zM535.466667 251.733333L249.6 733.866667c-4.266667 6.4-2.133333 14.933333 0 19.2 2.133333 4.266667 4.266667 6.4 8.533333 6.4h571.733334c4.266667 0 6.4-2.133333 8.533333-6.4 2.133333-4.266667 4.266667-12.8 0-19.2L550.4 251.733333c-4.266667-6.4-10.666667-6.4-14.933333 0z" p-id="2077" fill="#d81e06"></path></svg>