<svg width="25" height="23" viewBox="0 0 25 23" fill="none" xmlns="http://www.w3.org/2000/svg">
<mask id="path-1-inside-1_252_407" fill="white">
<path fill-rule="evenodd" clip-rule="evenodd" d="M12.6641 2.16878C15.4861 -0.72293 20.0615 -0.722927 22.8835 2.16879C25.6581 5.0119 25.7047 9.5918 23.0234 12.4933L12.5165 23L2.13108 12.9619L2.13648 12.9564C-0.716684 10.0177 -0.712152 5.26538 2.15007 2.33247C5.0123 -0.600439 9.65007 -0.605082 12.5179 2.31854L12.6641 2.16878Z"/>
</mask>
<path d="M22.8835 2.16879L23.5992 1.47036L22.8835 2.16879ZM12.6641 2.16878L13.3797 2.86722L13.3797 2.86721L12.6641 2.16878ZM23.0234 12.4933L23.7305 13.2004C23.7398 13.1911 23.7489 13.1816 23.7578 13.172L23.0234 12.4933ZM12.5165 23L11.8215 23.719C12.2139 24.0982 12.8378 24.0929 13.2236 23.7071L12.5165 23ZM2.13108 12.9619L1.41542 12.2634C1.2296 12.4538 1.12731 12.7105 1.13119 12.9765C1.13507 13.2425 1.2448 13.496 1.4361 13.6809L2.13108 12.9619ZM2.13648 12.9564L2.85214 13.6548C3.23056 13.2671 3.23136 12.6485 2.85395 12.2598L2.13648 12.9564ZM2.15007 2.33247L1.4344 1.63404L1.4344 1.63404L2.15007 2.33247ZM12.5179 2.31854L11.804 3.01881C11.9924 3.21084 12.2502 3.31889 12.5192 3.31854C12.7882 3.3182 13.0457 3.20949 13.2336 3.01697L12.5179 2.31854ZM23.5992 1.47036C20.3848 -1.82345 15.1628 -1.82345 11.9484 1.47035L13.3797 2.86721C15.8094 0.377594 19.7382 0.377596 22.1678 2.86722L23.5992 1.47036ZM23.7578 13.172C26.799 9.88109 26.7469 4.69582 23.5992 1.47036L22.1678 2.86722C24.5693 5.32798 24.6105 9.30252 22.289 11.8146L23.7578 13.172ZM13.2236 23.7071L23.7305 13.2004L22.3163 11.7862L11.8094 22.2929L13.2236 23.7071ZM1.4361 13.6809L11.8215 23.719L13.2115 22.281L2.82606 12.2429L1.4361 13.6809ZM1.42082 12.2579L1.41542 12.2634L2.84674 13.6603L2.85214 13.6548L1.42082 12.2579ZM1.4344 1.63404C-1.80637 4.95484 -1.81142 10.3257 1.41901 13.6529L2.85395 12.2598C0.378052 9.70967 0.382061 5.57593 2.86575 3.0309L1.4344 1.63404ZM13.2318 1.61828C9.97129 -1.70565 4.68838 -1.7003 1.4344 1.63404L2.86575 3.0309C5.33622 0.499426 9.32885 0.495487 11.804 3.01881L13.2318 1.61828ZM11.9484 1.47035L11.8022 1.62011L13.2336 3.01697L13.3797 2.86722L11.9484 1.47035Z" fill="#575757" mask="url(#path-1-inside-1_252_407)"/>
</svg>
