<svg width="16" height="21" viewBox="0 0 16 21" fill="none" xmlns="http://www.w3.org/2000/svg">
<path fill-rule="evenodd" clip-rule="evenodd" d="M14.0377 10.5442C14.6493 9.50466 15 8.29329 15 7C15 3.13401 11.866 0 8 0C4.13401 0 1 3.13401 1 7C1 8.29329 1.35073 9.50466 1.96225 10.5442C2.01566 10.73 2.09813 10.9135 2.2124 11.0894L6.32274 17.4177C7.11134 18.6318 8.88866 18.6318 9.67726 17.4177L13.7876 11.0894C13.9019 10.9135 13.9843 10.73 14.0377 10.5442ZM11 7C11 8.65685 9.65685 10 8 10C6.34315 10 5 8.65685 5 7C5 5.34315 6.34315 4 8 4C9.65685 4 11 5.34315 11 7ZM8 21C12.4183 21 16 20.5523 16 20C16 19.4477 12.4183 19 8 19C3.58172 19 0 19.4477 0 20C0 20.5523 3.58172 21 8 21Z" fill="#5E95EE"/>
</svg>
