<svg width="21" height="21" viewBox="0 0 21 21" fill="none" xmlns="http://www.w3.org/2000/svg">
<path d="M12.7728 19.1904L13.1583 19.5087V19.5087L12.7728 19.1904ZM19.8364 12.093L20.2531 12.3694L19.8364 12.093ZM14.1855 12.9367L14.1814 12.4367L14.1855 12.9367ZM12.881 13.0281L12.7769 12.5391L12.881 13.0281ZM9.12288 18.5634L8.62823 18.4905L9.12288 18.5634ZM9.53996 19.5375L9.29832 19.9752L9.53996 19.5375ZM0.5 11.093V2.21035H1.5V11.093H0.5ZM2 0.71035H5.70911V1.71035H2V0.71035ZM6.18002 12.593H5.70911V11.593H6.18002V12.593ZM5.70911 12.593H2V11.593H5.70911V12.593ZM6.20911 1.21035V12.093H5.20911V1.21035H6.20911ZM8.53091 16.0357C8.44117 15.7652 8.2204 15.4064 7.8986 14.9968C7.58401 14.5964 7.20142 14.1829 6.82631 13.806C6.45226 13.4302 6.09168 13.0968 5.82426 12.8572C5.69074 12.7375 5.5809 12.6416 5.50479 12.576C5.46674 12.5431 5.43716 12.5179 5.41729 12.501C5.40735 12.4926 5.39985 12.4862 5.39494 12.4821C5.39248 12.48 5.39067 12.4785 5.38953 12.4775C5.38896 12.4771 5.38855 12.4767 5.38832 12.4765C5.3882 12.4764 5.38813 12.4764 5.3881 12.4763C5.38808 12.4763 5.38809 12.4763 5.38808 12.4763C5.3881 12.4763 5.38813 12.4764 5.70911 12.093C6.03009 11.7096 6.03014 11.7097 6.0302 11.7097C6.03023 11.7097 6.03031 11.7098 6.03038 11.7099C6.03052 11.71 6.0307 11.7101 6.03092 11.7103C6.03137 11.7107 6.03199 11.7112 6.03278 11.7119C6.03436 11.7132 6.03661 11.7151 6.03952 11.7176C6.04532 11.7224 6.05375 11.7296 6.06462 11.7388C6.08637 11.7573 6.11795 11.7842 6.15808 11.8189C6.23832 11.8881 6.3529 11.9881 6.49162 12.1124C6.7687 12.3607 7.14392 12.7075 7.53509 13.1006C7.92521 13.4925 8.33729 13.9366 8.68492 14.379C9.02533 14.8123 9.33433 15.2815 9.48005 15.7208L8.53091 16.0357ZM9.48005 15.7208C9.81989 16.7453 9.71957 17.9447 9.61753 18.6364L8.62823 18.4905C8.72563 17.8302 8.7934 16.827 8.53091 16.0357L9.48005 15.7208ZM9.7816 19.0997C10.1309 19.2925 10.5957 19.483 11.0648 19.4989C11.5065 19.5139 11.9698 19.3774 12.3872 18.872L13.1583 19.5087C12.525 20.2756 11.7526 20.5228 11.0309 20.4984C10.3365 20.4748 9.71035 20.2026 9.29832 19.9752L9.7816 19.0997ZM19.4198 11.8166C19.4171 11.8207 19.4281 11.8047 19.4426 11.7532C19.4565 11.7038 19.4699 11.6353 19.4802 11.5453C19.5008 11.3642 19.5055 11.1274 19.4935 10.8412C19.4696 10.2702 19.3818 9.5542 19.2597 8.79611C19.0156 7.28192 18.6431 5.65316 18.4117 4.79174L19.3775 4.5323C19.617 5.42382 19.997 7.08614 20.2469 8.637C20.3717 9.41143 20.4663 10.1715 20.4926 10.7994C20.5057 11.1127 20.5025 11.4062 20.4737 11.6585C20.4468 11.895 20.3911 12.1614 20.2531 12.3694L19.4198 11.8166ZM16.3155 1.65711C16.324 1.66134 16.2894 1.64527 16.1739 1.62432C16.0701 1.60548 15.9319 1.58793 15.7596 1.57246C15.4156 1.5416 14.965 1.52157 14.4399 1.51057C13.3913 1.48862 12.0754 1.50321 10.7828 1.53274C9.49146 1.56223 8.22881 1.6065 7.28861 1.64341C6.81863 1.66186 6.42947 1.67846 6.15792 1.69045C6.02215 1.69644 5.91578 1.70128 5.84343 1.70462C5.80725 1.70629 5.77958 1.70758 5.76099 1.70845C5.75169 1.70889 5.74466 1.70922 5.73997 1.70945C5.73763 1.70956 5.73587 1.70964 5.73471 1.7097C5.73413 1.70972 5.73369 1.70975 5.73341 1.70976C5.73327 1.70976 5.73317 1.70977 5.7331 1.70977C5.73303 1.70978 5.73301 1.70978 5.70911 1.21035C5.6852 0.71092 5.68526 0.710918 5.68534 0.710915C5.68542 0.710911 5.68555 0.710905 5.68571 0.710897C5.68603 0.710882 5.68649 0.710859 5.68711 0.710831C5.68834 0.710772 5.69017 0.710684 5.69258 0.710569C5.69741 0.71034 5.70458 0.710001 5.71402 0.709558C5.73291 0.70867 5.76088 0.707363 5.79736 0.705681C5.87033 0.702316 5.97735 0.697447 6.11382 0.691423C6.38675 0.679377 6.77755 0.662703 7.24938 0.644178C8.19283 0.60714 9.46132 0.56266 10.76 0.532997C12.0574 0.503363 13.3903 0.488377 14.4609 0.510792C14.9953 0.521982 15.4718 0.542625 15.8489 0.576466C16.0372 0.593355 16.208 0.614162 16.3525 0.640388C16.4854 0.664503 16.6384 0.700193 16.7646 0.763588L16.3155 1.65711ZM18.4117 4.79174C17.9635 3.1234 17.088 2.04527 16.3155 1.65711L16.7646 0.763588C17.8758 1.322 18.8838 2.69477 19.3775 4.5323L18.4117 4.79174ZM14.1814 12.4367C14.6151 12.4331 15.1339 12.4795 15.6472 12.5213C16.1727 12.5642 16.7094 12.6041 17.2231 12.5977C18.2908 12.5846 19.0518 12.3713 19.4198 11.8166L20.2531 12.3694C19.5811 13.3823 18.3277 13.5842 17.2354 13.5976C16.6692 13.6046 16.0895 13.5607 15.5659 13.518C15.0301 13.4744 14.567 13.4336 14.1896 13.4366L14.1814 12.4367ZM12.7769 12.5391C13.1427 12.4612 13.6533 12.441 14.1814 12.4367L14.1896 13.4366C13.6544 13.441 13.2391 13.4631 12.9851 13.5172L12.7769 12.5391ZM12.3872 18.872C12.5738 18.6461 12.703 18.2218 12.7477 17.6059C12.7909 17.0102 12.7501 16.3228 12.6779 15.6548C12.6059 14.9881 12.5058 14.3653 12.435 13.8875C12.4006 13.6548 12.3713 13.4446 12.3591 13.2885C12.3533 13.2146 12.3488 13.1251 12.3567 13.0424C12.3603 13.0046 12.3695 12.9311 12.403 12.8517C12.4333 12.78 12.5341 12.5908 12.7769 12.5391L12.9851 13.5172C13.2135 13.4686 13.3028 13.2915 13.3243 13.2406C13.349 13.182 13.3522 13.1379 13.3522 13.1376C13.3529 13.13 13.3512 13.1481 13.356 13.2103C13.3652 13.3267 13.3891 13.5034 13.4243 13.7411C13.4928 14.2039 13.5974 14.8553 13.6722 15.5475C13.7468 16.2384 13.7947 16.9946 13.7451 17.6783C13.6969 18.3417 13.5515 19.0326 13.1583 19.5087L12.3872 18.872ZM0.5 2.21035C0.5 1.38192 1.17157 0.71035 2 0.71035V1.71035C1.72386 1.71035 1.5 1.93421 1.5 2.21035H0.5ZM9.61753 18.6364C9.5812 18.8826 9.67628 19.0416 9.7816 19.0997L9.29832 19.9752C8.72166 19.6569 8.55087 19.0149 8.62823 18.4905L9.61753 18.6364ZM1.5 11.093C1.5 11.3691 1.72386 11.593 2 11.593V12.593C1.17157 12.593 0.5 11.9214 0.5 11.093H1.5Z" fill="white"/>
</svg>
