<svg width="21" height="21" viewBox="0 0 21 21" fill="none" xmlns="http://www.w3.org/2000/svg">
<path d="M12.7728 1.80964L13.1583 1.49126V1.49126L12.7728 1.80964ZM19.8364 8.90701L20.2531 8.63059L19.8364 8.90701ZM14.1855 8.06335L14.1814 8.56333L14.1855 8.06335ZM12.881 7.97187L12.7769 8.46092L12.881 7.97187ZM9.12288 2.43657L8.62823 2.50954L9.12288 2.43657ZM9.53996 1.46253L9.29832 1.0248L9.53996 1.46253ZM0.5 9.90701V18.7896H1.5V9.90701H0.5ZM2 20.2896H5.70911V19.2896H2V20.2896ZM6.18002 8.40701H5.70911V9.40701H6.18002V8.40701ZM5.70911 8.40701H2V9.40701H5.70911V8.40701ZM6.20911 19.7896V8.90701H5.20911V19.7896H6.20911ZM8.53091 4.96432C8.44117 5.23484 8.2204 5.59361 7.8986 6.00318C7.58401 6.40357 7.20142 6.81712 6.82631 7.19402C6.45226 7.56985 6.09168 7.90319 5.82426 8.14283C5.69074 8.26248 5.5809 8.35836 5.50479 8.42403C5.46674 8.45686 5.43716 8.48212 5.41729 8.49899C5.40735 8.50743 5.39985 8.51377 5.39494 8.51791C5.39248 8.51998 5.39067 8.5215 5.38953 8.52246C5.38896 8.52294 5.38855 8.52328 5.38832 8.52348C5.3882 8.52358 5.38813 8.52364 5.3881 8.52367C5.38808 8.52368 5.38809 8.52367 5.38808 8.52368C5.3881 8.52366 5.38813 8.52364 5.70911 8.90701C6.03009 9.29038 6.03014 9.29034 6.0302 9.29028C6.03023 9.29025 6.03031 9.29019 6.03038 9.29014C6.03052 9.29002 6.0307 9.28987 6.03092 9.28968C6.03137 9.2893 6.03199 9.28878 6.03278 9.28812C6.03436 9.28679 6.03661 9.2849 6.03952 9.28245C6.04532 9.27755 6.05375 9.27043 6.06462 9.2612C6.08637 9.24273 6.11795 9.21577 6.15808 9.18114C6.23832 9.1119 6.3529 9.01187 6.49162 8.88756C6.7687 8.63927 7.14392 8.29248 7.53509 7.89945C7.92521 7.50747 8.33729 7.06344 8.68492 6.621C9.02533 6.18774 9.33433 5.71845 9.48005 5.27917L8.53091 4.96432ZM9.48005 5.27917C9.81989 4.25471 9.71957 3.05532 9.61753 2.3636L8.62823 2.50954C8.72563 3.16982 8.7934 4.17302 8.53091 4.96432L9.48005 5.27917ZM9.7816 1.90027C10.1309 1.70745 10.5957 1.51698 11.0648 1.50107C11.5065 1.48609 11.9698 1.62258 12.3872 2.12802L13.1583 1.49126C12.525 0.724356 11.7526 0.477162 11.0309 0.501645C10.3365 0.5252 9.71035 0.797352 9.29832 1.0248L9.7816 1.90027ZM19.4198 9.18343C19.4171 9.17934 19.4281 9.1953 19.4426 9.2468C19.4565 9.29624 19.4699 9.36466 19.4802 9.45473C19.5008 9.63583 19.5055 9.87259 19.4935 10.1588C19.4696 10.7298 19.3818 11.4458 19.2597 12.2039C19.0156 13.7181 18.6431 15.3468 18.4117 16.2083L19.3775 16.4677C19.617 15.5762 19.997 13.9139 20.2469 12.363C20.3717 11.5886 20.4663 10.8285 20.4926 10.2006C20.5057 9.88728 20.5025 9.59381 20.4737 9.34149C20.4468 9.10499 20.3911 8.83863 20.2531 8.63059L19.4198 9.18343ZM16.3155 19.3429C16.324 19.3387 16.2894 19.3547 16.1739 19.3757C16.0701 19.3945 15.9319 19.4121 15.7596 19.4275C15.4156 19.4584 14.965 19.4784 14.4399 19.4894C13.3913 19.5114 12.0754 19.4968 10.7828 19.4673C9.49146 19.4378 8.22881 19.3935 7.28861 19.3566C6.81863 19.3381 6.42947 19.3215 6.15792 19.3095C6.02215 19.3036 5.91578 19.2987 5.84343 19.2954C5.80725 19.2937 5.77958 19.2924 5.76099 19.2915C5.75169 19.2911 5.74466 19.2908 5.73997 19.2906C5.73763 19.2904 5.73587 19.2904 5.73471 19.2903C5.73413 19.2903 5.73369 19.2903 5.73341 19.2902C5.73327 19.2902 5.73317 19.2902 5.7331 19.2902C5.73303 19.2902 5.73301 19.2902 5.70911 19.7896C5.6852 20.2891 5.68526 20.2891 5.68534 20.2891C5.68542 20.2891 5.68555 20.2891 5.68571 20.2891C5.68603 20.2891 5.68649 20.2891 5.68711 20.2892C5.68834 20.2892 5.69017 20.2893 5.69258 20.2894C5.69741 20.2897 5.70458 20.29 5.71402 20.2904C5.73291 20.2913 5.76088 20.2926 5.79736 20.2943C5.87033 20.2977 5.97735 20.3026 6.11382 20.3086C6.38675 20.3206 6.77755 20.3373 7.24938 20.3558C8.19283 20.3929 9.46132 20.4373 10.76 20.467C12.0574 20.4966 13.3903 20.5116 14.4609 20.4892C14.9953 20.478 15.4718 20.4574 15.8489 20.4235C16.0372 20.4066 16.208 20.3858 16.3525 20.3596C16.4854 20.3355 16.6384 20.2998 16.7646 20.2364L16.3155 19.3429ZM18.4117 16.2083C17.9635 17.8766 17.088 18.9547 16.3155 19.3429L16.7646 20.2364C17.8758 19.678 18.8838 18.3052 19.3775 16.4677L18.4117 16.2083ZM14.1814 8.56333C14.6151 8.56687 15.1339 8.5205 15.6472 8.47867C16.1727 8.43584 16.7094 8.39594 17.2231 8.40228C18.2908 8.41544 19.0518 8.62875 19.4198 9.18343L20.2531 8.63059C19.5811 7.61772 18.3277 7.41582 17.2354 7.40235C16.6692 7.39537 16.0895 7.4393 15.5659 7.48197C15.0301 7.52564 14.567 7.56645 14.1896 7.56336L14.1814 8.56333ZM12.7769 8.46092C13.1427 8.53877 13.6533 8.55902 14.1814 8.56333L14.1896 7.56336C13.6544 7.55899 13.2391 7.53688 12.9851 7.48283L12.7769 8.46092ZM12.3872 2.12802C12.5738 2.35394 12.703 2.77823 12.7477 3.39414C12.7909 3.98983 12.7501 4.67723 12.6779 5.34516C12.6059 6.0119 12.5058 6.63474 12.435 7.11252C12.4006 7.34518 12.3713 7.5554 12.3591 7.71147C12.3533 7.78542 12.3488 7.8749 12.3567 7.95755C12.3603 7.99543 12.3695 8.06891 12.403 8.14828C12.4333 8.22 12.5341 8.40924 12.7769 8.46092L12.9851 7.48283C13.2135 7.53143 13.3028 7.7085 13.3243 7.75943C13.349 7.81801 13.3522 7.86209 13.3522 7.86243C13.3529 7.87001 13.3512 7.8519 13.356 7.78965C13.3652 7.6733 13.3891 7.49659 13.4243 7.25893C13.4928 6.79608 13.5974 6.1447 13.6722 5.45255C13.7468 4.76158 13.7947 4.0054 13.7451 3.32172C13.6969 2.65826 13.5515 1.96739 13.1583 1.49126L12.3872 2.12802ZM0.5 18.7896C0.5 19.6181 1.17157 20.2896 2 20.2896V19.2896C1.72386 19.2896 1.5 19.0658 1.5 18.7896H0.5ZM9.61753 2.3636C9.5812 2.11736 9.67628 1.95841 9.7816 1.90027L9.29832 1.0248C8.72166 1.34313 8.55087 1.98512 8.62823 2.50954L9.61753 2.3636ZM1.5 9.90701C1.5 9.63087 1.72386 9.40701 2 9.40701V8.40701C1.17157 8.40701 0.5 9.07858 0.5 9.90701H1.5Z" fill="white"/>
</svg>
