<svg width="13" height="25" viewBox="0 0 13 25" fill="none" xmlns="http://www.w3.org/2000/svg">
<path d="M5.02061 1H7.97939C9.63127 1 10.571 2.88914 9.57446 4.20656L8.07143 6.19355L11.6317 16.2793C11.8609 16.9285 11.7401 17.6499 11.3119 18.1889L7.33304 23.1985C7.30153 23.2382 7.26722 23.2755 7.23039 23.3103C6.82041 23.6974 6.17959 23.6974 5.76961 23.3103C5.73278 23.2755 5.69847 23.2382 5.66696 23.1985L1.68811 18.1889C1.25994 17.6499 1.13912 16.9285 1.36828 16.2793L4.92857 6.19355L3.42554 4.20656C2.429 2.88914 3.36873 1 5.02061 1Z" fill="#5E95EE"/>
<path d="M8.07143 6.19355L9.57445 4.20656C10.571 2.88914 9.63127 1 7.97939 1H5.02061C3.36873 1 2.429 2.88913 3.42554 4.20656L4.92857 6.19355M8.07143 6.19355H4.92857M8.07143 6.19355L11.6317 16.2793C11.8609 16.9285 11.7401 17.6499 11.3119 18.1889L7.33304 23.1985C7.30153 23.2382 7.26722 23.2755 7.23039 23.3103V23.3103C6.82041 23.6974 6.17959 23.6974 5.76961 23.3103V23.3103C5.73278 23.2755 5.69847 23.2382 5.66696 23.1985L1.68811 18.1889C1.25994 17.6499 1.13912 16.9285 1.36828 16.2793L4.92857 6.19355" stroke="white" stroke-linecap="round" stroke-linejoin="round"/>
</svg>
